<svg style="overflow: hidden; position: relative;" xmlns="http://www.w3.org/2000/svg" xmlns:xlink="http://www.w3.org/1999/xlink" width="800" version="1.1" height="600"><path transform="matrix(1,0,0,1,0,0)" fill="none" stroke="#000" d="M340,180L300,140" stroke-width="1"></path><path transform="matrix(1,0,0,1,0,0)" fill="none" stroke="#000" d="M120,140L160,140" stroke-width="1"></path><circle transform="matrix(1,0,0,1,160,140)" cx="0" cy="0" r="5" fill="rgb(0, 0, 0)" stroke="rgb(0, 0, 0)" stroke-width="1"></circle><text transform="matrix(1,0,0,1,160,140)" style="text-anchor: middle; font: normal normal normal 10px/normal ;" x="10" y="10" text-anchor="middle" font-family="&quot;Arial&quot;" font-size="10px" stroke="none" fill="#000" stroke-width="1"><tspan dy="3.634615384615385"></tspan></text><circle transform="matrix(1,0,0,1,300,140)" cx="0" cy="0" r="5" fill="rgb(0, 0, 0)" stroke="rgb(0, 0, 0)" stroke-width="1"></circle><text transform="matrix(1,0,0,1,300,140)" style="text-anchor: middle; font: normal normal normal 10px/normal ;" x="10" y="10" text-anchor="middle" font-family="&quot;Arial&quot;" font-size="10px" stroke="none" fill="#000" stroke-width="1"><tspan dy="3.634615384615385"></tspan></text><path transform="matrix(1,0,0,1,0,0)" fill="none" stroke="rgb(0, 0, 0)" d="M160,140L300,140" stroke-width="2" class="pgline line_uv2f-ydej-j9fi" stroke-linecap="round" stroke-linejoin="round"></path><text transform="matrix(1,0,0,1,255,165)" style="text-anchor: middle; font: normal normal normal 10px/normal ;" x="0" y="0" text-anchor="middle" font-family="&quot;Arial&quot;" font-size="10px" stroke="none" fill="#000" stroke-width="1"><tspan dy="-14.53846153846154">0м</tspan></text>,<text transform="matrix(1,0,0,1,255,165)" style="text-anchor: middle; font: normal normal normal 10px/normal ;" x="0" y="0" text-anchor="middle" font-family="&quot;Arial&quot;" font-size="10px" stroke="none" fill="#000" stroke-width="1"><tspan dy="-2.4230769230769225">0мм²</tspan></text>,<text transform="matrix(1,0,0,1,255,165)" style="text-anchor: middle; font: normal normal normal 10px/normal ;" x="0" y="0" text-anchor="middle" font-family="&quot;Arial&quot;" font-size="10px" stroke="none" fill="#000" stroke-width="1"><tspan dy="9.69230769230769">0мм²</tspan></text>,<text transform="matrix(1,0,0,1,255,165)" style="text-anchor: middle; font: normal normal normal 10px/normal ;" x="0" y="0" text-anchor="middle" font-family="&quot;Arial&quot;" font-size="10px" stroke="none" fill="#000" stroke-width="1"><tspan dy="21.807692307692307"></tspan></text><path transform="matrix(1,0,0,1,0,0)" fill="none" stroke="rgb(0, 0, 0)" d="M230,140L255,165" stroke-dasharray="- " stroke-width="1"></path><circle transform="matrix(1,0,0,1,120,140)" cx="0" cy="0" r="10" fill="#ffffff" stroke="rgb(0, 0, 0)" stroke-width="1"></circle><path transform="matrix(1,0,0,1,120,140)" fill="none" stroke="rgb(0, 0, 0)" d="M-6,0L6,0L2,3L6,0L2,-3" stroke-width="1"></path><text transform="matrix(1,0,0,1,120,140)" style="text-anchor: middle; font: normal normal normal 10px/normal ;" x="20" y="20" text-anchor="middle" font-family="&quot;Arial&quot;" font-size="10px" stroke="none" fill="#000" stroke-width="1"><tspan dy="3.634615384615385">Источник</tspan></text><rect transform="matrix(1,0,0,1,340,180)" x="-5" y="-5" width="10" height="10" rx="0" ry="0" fill="rgb(255, 255, 0)" stroke="rgb(0, 0, 0)" stroke-width="1"></rect><text transform="matrix(1,0,0,1,340,180)" style="text-anchor: middle; font: normal normal normal 10px/normal ;" x="10" y="10" text-anchor="middle" font-family="&quot;Arial&quot;" font-size="10px" stroke="none" fill="#000" stroke-width="1"><tspan dy="3.634615384615385">Потребитель</tspan></text></svg>