<svg style="overflow: hidden; position: relative;" xmlns="http://www.w3.org/2000/svg" xmlns:xlink="http://www.w3.org/1999/xlink" width="800" version="1.1" height="600"><circle transform="matrix(1,0,0,1,179.5,104)" cx="0" cy="0" r="5" fill="rgb(0, 0, 0)" stroke="rgb(0, 0, 0)" stroke-width="1"></circle><text transform="matrix(1,0,0,1,179.5,104)" style="text-anchor: middle; font: normal normal normal 10px/normal ;" x="10" y="10" text-anchor="middle" font-family="&quot;Arial&quot;" font-size="10px" stroke="none" fill="#000" stroke-width="1"><tspan dy="3.634615384615385"></tspan></text><circle transform="matrix(1,0,0,1,339.5,122)" cx="0" cy="0" r="5" fill="rgb(0, 0, 0)" stroke="rgb(0, 0, 0)" stroke-width="1"></circle><text transform="matrix(1,0,0,1,339.5,122)" style="text-anchor: middle; font: normal normal normal 10px/normal ;" x="10" y="10" text-anchor="middle" font-family="&quot;Arial&quot;" font-size="10px" stroke="none" fill="#000" stroke-width="1"><tspan dy="3.634615384615385"></tspan></text><circle transform="matrix(1,0,0,1,344.5,230)" cx="0" cy="0" r="5" fill="rgb(0, 0, 0)" stroke="rgb(0, 0, 0)" stroke-width="1"></circle><text transform="matrix(1,0,0,1,344.5,230)" style="text-anchor: middle; font: normal normal normal 10px/normal ;" x="10" y="10" text-anchor="middle" font-family="&quot;Arial&quot;" font-size="10px" stroke="none" fill="#000" stroke-width="1"><tspan dy="3.634615384615385"></tspan></text><circle transform="matrix(1,0,0,1,193.5,219)" cx="0" cy="0" r="5" fill="rgb(0, 0, 0)" stroke="rgb(0, 0, 0)" stroke-width="1"></circle><text transform="matrix(1,0,0,1,193.5,219)" style="text-anchor: middle; font: normal normal normal 10px/normal ;" x="10" y="10" text-anchor="middle" font-family="&quot;Arial&quot;" font-size="10px" stroke="none" fill="#000" stroke-width="1"><tspan dy="3.634615384615385"></tspan></text><circle transform="matrix(1,0,0,1,522.5,101)" cx="0" cy="0" r="5" fill="rgba(0, 0, 0, 0.0)" stroke="rgba(0, 0, 0, 0.0)" class="polylinevertex polyline_dkud-aqfe-ai99" stroke-width="1" class="polylinevertex polyline_dkud-aqfe-ai99"></circle><circle transform="matrix(1,0,0,1,622.5,201)" cx="0" cy="0" r="5" fill="rgba(0, 0, 0, 0.0)" stroke="rgba(0, 0, 0, 0.0)" class="polylinevertex polyline_dkud-aqfe-ai99" stroke-width="1" class="polylinevertex polyline_dkud-aqfe-ai99"></circle><circle transform="matrix(1,0,0,1,547.5,176)" cx="0" cy="0" r="5" fill="rgba(0, 0, 0, 0.0)" stroke="rgba(0, 0, 0, 0.0)" class="polylinevertex polyline_dkud-aqfe-ai99" stroke-width="1" class="polylinevertex polyline_dkud-aqfe-ai99"></circle><path transform="matrix(1,0,0,1,0,0)" fill="none" stroke="rgb(0, 0, 0)" d="M522.5,101L622.5,201L547.5,176L522.5,101Z" stroke-width="2" class="pgpolyline polyline_dkud-aqfe-ai99"></path><circle transform="matrix(1,0,0,1,494.5,325)" cx="0" cy="0" r="5" fill="rgba(0, 0, 0, 0.0)" stroke="rgba(0, 0, 0, 0.0)" class="polylinevertex polyline_qcyl-u9fq-9vth" stroke-width="1" class="polylinevertex polyline_qcyl-u9fq-9vth"></circle><circle transform="matrix(1,0,0,1,594.5,425)" cx="0" cy="0" r="5" fill="rgba(0, 0, 0, 0.0)" stroke="rgba(0, 0, 0, 0.0)" class="polylinevertex polyline_qcyl-u9fq-9vth" stroke-width="1" class="polylinevertex polyline_qcyl-u9fq-9vth"></circle><circle transform="matrix(1,0,0,1,519.5,400)" cx="0" cy="0" r="5" fill="rgba(0, 0, 0, 0.0)" stroke="rgba(0, 0, 0, 0.0)" class="polylinevertex polyline_qcyl-u9fq-9vth" stroke-width="1" class="polylinevertex polyline_qcyl-u9fq-9vth"></circle><path transform="matrix(1,0,0,1,0,0)" fill="none" stroke="rgb(0, 0, 0)" d="M494.5,325L594.5,425L519.5,400L494.5,325Z" stroke-width="2" class="pgpolyline polyline_qcyl-u9fq-9vth"></path><circle transform="matrix(1,0,0,1,371.5,314)" cx="0" cy="0" r="5" fill="rgba(0, 0, 0, 0.0)" stroke="rgba(0, 0, 0, 0.0)" class="polylinevertex polyline_h9nd-emru-n6ht" stroke-width="1" class="polylinevertex polyline_h9nd-emru-n6ht"></circle><circle transform="matrix(1,0,0,1,471.5,414)" cx="0" cy="0" r="5" fill="rgba(0, 0, 0, 0.0)" stroke="rgba(0, 0, 0, 0.0)" class="polylinevertex polyline_h9nd-emru-n6ht" stroke-width="1" class="polylinevertex polyline_h9nd-emru-n6ht"></circle><circle transform="matrix(1,0,0,1,396.5,389)" cx="0" cy="0" r="5" fill="rgba(0, 0, 0, 0.0)" stroke="rgba(0, 0, 0, 0.0)" class="polylinevertex polyline_h9nd-emru-n6ht" stroke-width="1" class="polylinevertex polyline_h9nd-emru-n6ht"></circle><path transform="matrix(1,0,0,1,0,0)" fill="none" stroke="rgb(0, 0, 0)" d="M371.5,314L471.5,414L396.5,389L371.5,314Z" stroke-width="2" class="pgpolyline polyline_h9nd-emru-n6ht"></path><circle transform="matrix(1,0,0,1,233.5,325)" cx="0" cy="0" r="5" fill="rgba(0, 0, 0, 0.0)" stroke="rgba(0, 0, 0, 0.0)" class="polylinevertex polyline_ofs8-ghwj-o7a6" stroke-width="1" class="polylinevertex polyline_ofs8-ghwj-o7a6"></circle><circle transform="matrix(1,0,0,1,333.5,425)" cx="0" cy="0" r="5" fill="rgba(0, 0, 0, 0.0)" stroke="rgba(0, 0, 0, 0.0)" class="polylinevertex polyline_ofs8-ghwj-o7a6" stroke-width="1" class="polylinevertex polyline_ofs8-ghwj-o7a6"></circle><circle transform="matrix(1,0,0,1,258.5,400)" cx="0" cy="0" r="5" fill="rgba(0, 0, 0, 0.0)" stroke="rgba(0, 0, 0, 0.0)" class="polylinevertex polyline_ofs8-ghwj-o7a6" stroke-width="1" class="polylinevertex polyline_ofs8-ghwj-o7a6"></circle><path transform="matrix(1,0,0,1,0,0)" fill="none" stroke="rgb(0, 0, 0)" d="M233.5,325L333.5,425L258.5,400L233.5,325Z" stroke-width="2" class="pgpolyline polyline_ofs8-ghwj-o7a6"></path><circle transform="matrix(1,0,0,1,138.5,217)" cx="0" cy="0" r="5" fill="rgba(0, 0, 0, 0.0)" stroke="rgba(0, 0, 0, 0.0)" class="polylinevertex polyline_l4dd-bgof-48i5" stroke-width="1" class="polylinevertex polyline_l4dd-bgof-48i5"></circle><circle transform="matrix(1,0,0,1,238.5,317)" cx="0" cy="0" r="5" fill="rgba(0, 0, 0, 0.0)" stroke="rgba(0, 0, 0, 0.0)" class="polylinevertex polyline_l4dd-bgof-48i5" stroke-width="1" class="polylinevertex polyline_l4dd-bgof-48i5"></circle><circle transform="matrix(1,0,0,1,163.5,292)" cx="0" cy="0" r="5" fill="rgba(0, 0, 0, 0.0)" stroke="rgba(0, 0, 0, 0.0)" class="polylinevertex polyline_l4dd-bgof-48i5" stroke-width="1" class="polylinevertex polyline_l4dd-bgof-48i5"></circle><path transform="matrix(1,0,0,1,0,0)" fill="none" stroke="rgb(0, 0, 0)" d="M138.5,217L238.5,317L163.5,292L138.5,217Z" stroke-width="2" class="pgpolyline polyline_l4dd-bgof-48i5"></path></svg>