<svg style="overflow: hidden; position: relative;" xmlns="http://www.w3.org/2000/svg" xmlns:xlink="http://www.w3.org/1999/xlink" width="800" version="1.1" height="600"><path transform="matrix(1,0,0,1,0,0)" fill="none" stroke="#000" d="M300,180L300,140" stroke-width="1"></path><path transform="matrix(1,0,0,1,0,0)" fill="none" stroke="#000" d="M320,180L300,140" stroke-width="1"></path><path transform="matrix(1,0,0,1,0,0)" fill="none" stroke="#000" d="M320,100L300,140" stroke-width="1"></path><path transform="matrix(1,0,0,1,0,0)" fill="none" stroke="#000" d="M300,100L300,140" stroke-width="1"></path><path transform="matrix(1,0,0,1,0,0)" fill="none" stroke="#000" d="M80,200L140,140" stroke-width="1"></path><path transform="matrix(1,0,0,1,0,0)" fill="none" stroke="#000" d="M560,140L500,140" stroke-width="1"></path><path transform="matrix(1,0,0,1,0,0)" fill="none" stroke="#000" d="M500,80L500,140" stroke-width="1"></path><path transform="matrix(1,0,0,1,0,0)" fill="none" stroke="#000" d="M500,200L500,140" stroke-width="1"></path><path transform="matrix(1,0,0,1,0,0)" fill="none" stroke="#000" d="M400,200L400,140" stroke-width="1"></path><path transform="matrix(1,0,0,1,0,0)" fill="none" stroke="#000" d="M280,100L300,140" stroke-width="1"></path><path transform="matrix(1,0,0,1,0,0)" fill="none" stroke="#000" d="M280,180L300,140" stroke-width="1"></path><circle transform="matrix(1,0,0,1,140,140)" cx="0" cy="0" r="5" fill="rgb(0, 0, 0)" stroke="rgb(0, 0, 0)" stroke-width="1"></circle><text transform="matrix(1,0,0,1,140,140)" style="text-anchor: middle; font: normal normal normal 10px/normal ;" x="10" y="10" text-anchor="middle" font-family="&quot;Arial&quot;" font-size="10px" stroke="none" fill="#000" stroke-width="1"><tspan dy="3.634615384615385">0</tspan></text><circle transform="matrix(1,0,0,1,220,140)" cx="0" cy="0" r="5" fill="rgb(0, 0, 0)" stroke="rgb(0, 0, 0)" stroke-width="1"></circle><text transform="matrix(1,0,0,1,220,140)" style="text-anchor: middle; font: normal normal normal 10px/normal ;" x="10" y="10" text-anchor="middle" font-family="&quot;Arial&quot;" font-size="10px" stroke="none" fill="#000" stroke-width="1"><tspan dy="3.634615384615385">1</tspan></text><circle transform="matrix(1,0,0,1,300,140)" cx="0" cy="0" r="5" fill="rgb(0, 0, 0)" stroke="rgb(0, 0, 0)" stroke-width="1"></circle><text transform="matrix(1,0,0,1,300,140)" style="text-anchor: middle; font: normal normal normal 10px/normal ;" x="10" y="10" text-anchor="middle" font-family="&quot;Arial&quot;" font-size="10px" stroke="none" fill="#000" stroke-width="1"><tspan dy="3.634615384615385">3</tspan></text><circle transform="matrix(1,0,0,1,400,140)" cx="0" cy="0" r="5" fill="rgb(0, 0, 0)" stroke="rgb(0, 0, 0)" stroke-width="1"></circle><text transform="matrix(1,0,0,1,400,140)" style="text-anchor: middle; font: normal normal normal 10px/normal ;" x="10" y="10" text-anchor="middle" font-family="&quot;Arial&quot;" font-size="10px" stroke="none" fill="#000" stroke-width="1"><tspan dy="3.634615384615385">6</tspan></text><circle transform="matrix(1,0,0,1,500,140)" cx="0" cy="0" r="5" fill="rgb(0, 0, 0)" stroke="rgb(0, 0, 0)" stroke-width="1"></circle><text transform="matrix(1,0,0,1,500,140)" style="text-anchor: middle; font: normal normal normal 10px/normal ;" x="10" y="10" text-anchor="middle" font-family="&quot;Arial&quot;" font-size="10px" stroke="none" fill="#000" stroke-width="1"><tspan dy="3.634615384615385">8</tspan></text><path transform="matrix(1,0,0,1,0,0)" fill="none" stroke="rgb(0, 0, 0)" d="M140,140L220,140" stroke-width="2" class="pgline line_ipiq-q3nn-l6jj" stroke-linecap="round" stroke-linejoin="round"></path><text transform="matrix(1,0,0,1,140,100)" style="text-anchor: middle; font: normal normal normal 10px/normal ;" x="0" y="0" text-anchor="middle" font-family="&quot;Arial&quot;" font-size="10px" stroke="none" fill="#000" stroke-width="1"><tspan dy="-14.53846153846154">174м</tspan></text>,<text transform="matrix(1,0,0,1,140,100)" style="text-anchor: middle; font: normal normal normal 10px/normal ;" x="0" y="0" text-anchor="middle" font-family="&quot;Arial&quot;" font-size="10px" stroke="none" fill="#000" stroke-width="1"><tspan dy="-2.4230769230769225">95мм²</tspan></text>,<text transform="matrix(1,0,0,1,140,100)" style="text-anchor: middle; font: normal normal normal 10px/normal ;" x="0" y="0" text-anchor="middle" font-family="&quot;Arial&quot;" font-size="10px" stroke="none" fill="#000" stroke-width="1"><tspan dy="9.69230769230769">50мм²</tspan></text>,<text transform="matrix(1,0,0,1,140,100)" style="text-anchor: middle; font: normal normal normal 10px/normal ;" x="0" y="0" text-anchor="middle" font-family="&quot;Arial&quot;" font-size="10px" stroke="none" fill="#000" stroke-width="1"><tspan dy="21.807692307692307"></tspan></text><path transform="matrix(1,0,0,1,0,0)" fill="none" stroke="rgb(0, 0, 0)" d="M180,140L140,100" stroke-dasharray="- " stroke-width="1"></path><path transform="matrix(1,0,0,1,0,0)" fill="none" stroke="rgb(0, 0, 0)" d="M220,140L300,140" stroke-width="2" class="pgline line_iisu-l5iu-5ihs" stroke-linecap="round" stroke-linejoin="round"></path><text transform="matrix(1,0,0,1,220,180)" style="text-anchor: middle; font: normal normal normal 10px/normal ;" x="0" y="0" text-anchor="middle" font-family="&quot;Arial&quot;" font-size="10px" stroke="none" fill="#000" stroke-width="1"><tspan dy="-14.53846153846154">20м</tspan></text>,<text transform="matrix(1,0,0,1,220,180)" style="text-anchor: middle; font: normal normal normal 10px/normal ;" x="0" y="0" text-anchor="middle" font-family="&quot;Arial&quot;" font-size="10px" stroke="none" fill="#000" stroke-width="1"><tspan dy="-2.4230769230769225">95мм²</tspan></text>,<text transform="matrix(1,0,0,1,220,180)" style="text-anchor: middle; font: normal normal normal 10px/normal ;" x="0" y="0" text-anchor="middle" font-family="&quot;Arial&quot;" font-size="10px" stroke="none" fill="#000" stroke-width="1"><tspan dy="9.69230769230769">50мм²</tspan></text>,<text transform="matrix(1,0,0,1,220,180)" style="text-anchor: middle; font: normal normal normal 10px/normal ;" x="0" y="0" text-anchor="middle" font-family="&quot;Arial&quot;" font-size="10px" stroke="none" fill="#000" stroke-width="1"><tspan dy="21.807692307692307"></tspan></text><path transform="matrix(1,0,0,1,0,0)" fill="none" stroke="rgb(0, 0, 0)" d="M260,140L220,180" stroke-dasharray="- " stroke-width="1"></path><path transform="matrix(1,0,0,1,0,0)" fill="none" stroke="rgb(0, 0, 0)" d="M400,140L300,140" stroke-width="2" class="pgline line_cbxv-5bma-3st7" stroke-linecap="round" stroke-linejoin="round"></path><text transform="matrix(1,0,0,1,400,40)" style="text-anchor: middle; font: normal normal normal 10px/normal ;" x="0" y="0" text-anchor="middle" font-family="&quot;Arial&quot;" font-size="10px" stroke="none" fill="#000" stroke-width="1"><tspan dy="-14.53846153846154">21м</tspan></text>,<text transform="matrix(1,0,0,1,400,40)" style="text-anchor: middle; font: normal normal normal 10px/normal ;" x="0" y="0" text-anchor="middle" font-family="&quot;Arial&quot;" font-size="10px" stroke="none" fill="#000" stroke-width="1"><tspan dy="-2.4230769230769225">95мм²</tspan></text>,<text transform="matrix(1,0,0,1,400,40)" style="text-anchor: middle; font: normal normal normal 10px/normal ;" x="0" y="0" text-anchor="middle" font-family="&quot;Arial&quot;" font-size="10px" stroke="none" fill="#000" stroke-width="1"><tspan dy="9.69230769230769">50мм²</tspan></text>,<text transform="matrix(1,0,0,1,400,40)" style="text-anchor: middle; font: normal normal normal 10px/normal ;" x="0" y="0" text-anchor="middle" font-family="&quot;Arial&quot;" font-size="10px" stroke="none" fill="#000" stroke-width="1"><tspan dy="21.807692307692307"></tspan></text><path transform="matrix(1,0,0,1,0,0)" fill="none" stroke="rgb(0, 0, 0)" d="M350,140L400,40" stroke-dasharray="- " stroke-width="1"></path><path transform="matrix(1,0,0,1,0,0)" fill="none" stroke="rgb(0, 0, 0)" d="M500,140L400,140" stroke-width="2" class="pgline line_gsxo-nenq-lc1c" stroke-linecap="round" stroke-linejoin="round"></path><text transform="matrix(1,0,0,1,450,103)" style="text-anchor: middle; font: normal normal normal 10px/normal ;" x="0" y="0" text-anchor="middle" font-family="&quot;Arial&quot;" font-size="10px" stroke="none" fill="#000" stroke-width="1"><tspan dy="-14.53846153846154">12м</tspan></text>,<text transform="matrix(1,0,0,1,450,103)" style="text-anchor: middle; font: normal normal normal 10px/normal ;" x="0" y="0" text-anchor="middle" font-family="&quot;Arial&quot;" font-size="10px" stroke="none" fill="#000" stroke-width="1"><tspan dy="-2.4230769230769225">70мм²</tspan></text>,<text transform="matrix(1,0,0,1,450,103)" style="text-anchor: middle; font: normal normal normal 10px/normal ;" x="0" y="0" text-anchor="middle" font-family="&quot;Arial&quot;" font-size="10px" stroke="none" fill="#000" stroke-width="1"><tspan dy="9.69230769230769">50мм²</tspan></text>,<text transform="matrix(1,0,0,1,450,103)" style="text-anchor: middle; font: normal normal normal 10px/normal ;" x="0" y="0" text-anchor="middle" font-family="&quot;Arial&quot;" font-size="10px" stroke="none" fill="#000" stroke-width="1"><tspan dy="21.807692307692307"></tspan></text><path transform="matrix(1,0,0,1,0,0)" fill="none" stroke="rgb(0, 0, 0)" d="M450,140L450,103" stroke-dasharray="- " stroke-width="1"></path><rect transform="matrix(1,0,0,1,280,180)" x="-5" y="-5" width="10" height="10" rx="0" ry="0" fill="rgb(255, 255, 0)" stroke="rgb(0, 0, 0)" stroke-width="1"></rect><text transform="matrix(1,0,0,1,280,180)" style="text-anchor: middle; font: normal normal normal 10px/normal ;" x="10" y="10" text-anchor="middle" font-family="&quot;Arial&quot;" font-size="10px" stroke="none" fill="#000" stroke-width="1"><tspan dy="3.634615384615385">5A</tspan></text><rect transform="matrix(1,0,0,1,280,100)" x="-5" y="-5" width="10" height="10" rx="0" ry="0" fill="rgb(255, 255, 0)" stroke="rgb(0, 0, 0)" stroke-width="1"></rect><text transform="matrix(1,0,0,1,280,100)" style="text-anchor: middle; font: normal normal normal 10px/normal ;" x="10" y="10" text-anchor="middle" font-family="&quot;Arial&quot;" font-size="10px" stroke="none" fill="#000" stroke-width="1"><tspan dy="3.634615384615385">4A</tspan></text><rect transform="matrix(1,0,0,1,400,200)" x="-5" y="-5" width="10" height="10" rx="0" ry="0" fill="rgb(255, 255, 255)" stroke="rgb(0, 0, 0)" stroke-width="1"></rect><text transform="matrix(1,0,0,1,400,200)" style="text-anchor: middle; font: normal normal normal 10px/normal ;" x="10" y="10" text-anchor="middle" font-family="&quot;Arial&quot;" font-size="10px" stroke="none" fill="#000" stroke-width="1"><tspan dy="3.634615384615385">7</tspan></text><rect transform="matrix(1,0,0,1,500,200)" x="-5" y="-5" width="10" height="10" rx="0" ry="0" fill="rgb(255, 255, 255)" stroke="rgb(0, 0, 0)" stroke-width="1"></rect><text transform="matrix(1,0,0,1,500,200)" style="text-anchor: middle; font: normal normal normal 10px/normal ;" x="10" y="10" text-anchor="middle" font-family="&quot;Arial&quot;" font-size="10px" stroke="none" fill="#000" stroke-width="1"><tspan dy="3.634615384615385">9</tspan></text><rect transform="matrix(1,0,0,1,500,80)" x="-5" y="-5" width="10" height="10" rx="0" ry="0" fill="rgb(255, 255, 255)" stroke="rgb(0, 0, 0)" stroke-width="1"></rect><text transform="matrix(1,0,0,1,500,80)" style="text-anchor: middle; font: normal normal normal 10px/normal ;" x="10" y="10" text-anchor="middle" font-family="&quot;Arial&quot;" font-size="10px" stroke="none" fill="#000" stroke-width="1"><tspan dy="3.634615384615385">11</tspan></text><rect transform="matrix(1,0,0,1,560,140)" x="-5" y="-5" width="10" height="10" rx="0" ry="0" fill="rgb(255, 255, 255)" stroke="rgb(0, 0, 0)" stroke-width="1"></rect><text transform="matrix(1,0,0,1,560,140)" style="text-anchor: middle; font: normal normal normal 10px/normal ;" x="10" y="10" text-anchor="middle" font-family="&quot;Arial&quot;" font-size="10px" stroke="none" fill="#000" stroke-width="1"><tspan dy="3.634615384615385">10</tspan></text><circle transform="matrix(1,0,0,1,80,200)" cx="0" cy="0" r="10" fill="#ffffff" stroke="rgb(0, 0, 0)" stroke-width="1"></circle><path transform="matrix(1,0,0,1,80,200)" fill="none" stroke="rgb(0, 0, 0)" d="M-6,0L6,0L2,3L6,0L2,-3" stroke-width="1"></path><text transform="matrix(1,0,0,1,80,200)" style="text-anchor: middle; font: normal normal normal 10px/normal ;" x="20" y="20" text-anchor="middle" font-family="&quot;Arial&quot;" font-size="10px" stroke="none" fill="#000" stroke-width="1"><tspan dy="3.634615384615385">Источник</tspan></text><rect transform="matrix(1,0,0,1,300,100)" x="-5" y="-5" width="10" height="10" rx="0" ry="0" fill="rgb(0, 255, 0)" stroke="rgb(0, 0, 0)" stroke-width="1"></rect><text transform="matrix(1,0,0,1,300,100)" style="text-anchor: middle; font: normal normal normal 10px/normal ;" x="10" y="10" text-anchor="middle" font-family="&quot;Arial&quot;" font-size="10px" stroke="none" fill="#000" stroke-width="1"><tspan dy="3.634615384615385">4B</tspan></text><rect transform="matrix(1,0,0,1,320,100)" x="-5" y="-5" width="10" height="10" rx="0" ry="0" fill="rgb(255, 0, 0)" stroke="rgb(0, 0, 0)" stroke-width="1"></rect><text transform="matrix(1,0,0,1,320,100)" style="text-anchor: middle; font: normal normal normal 10px/normal ;" x="10" y="10" text-anchor="middle" font-family="&quot;Arial&quot;" font-size="10px" stroke="none" fill="#000" stroke-width="1"><tspan dy="3.634615384615385">4C</tspan></text><rect transform="matrix(1,0,0,1,320,180)" x="-5" y="-5" width="10" height="10" rx="0" ry="0" fill="rgb(255, 0, 0)" stroke="rgb(0, 0, 0)" stroke-width="1"></rect><text transform="matrix(1,0,0,1,320,180)" style="text-anchor: middle; font: normal normal normal 10px/normal ;" x="10" y="10" text-anchor="middle" font-family="&quot;Arial&quot;" font-size="10px" stroke="none" fill="#000" stroke-width="1"><tspan dy="3.634615384615385">5C</tspan></text><rect transform="matrix(1,0,0,1,300,180)" x="-5" y="-5" width="10" height="10" rx="0" ry="0" fill="rgb(0, 255, 0)" stroke="rgb(0, 0, 0)" stroke-width="1"></rect><text transform="matrix(1,0,0,1,300,180)" style="text-anchor: middle; font: normal normal normal 10px/normal ;" x="10" y="10" text-anchor="middle" font-family="&quot;Arial&quot;" font-size="10px" stroke="none" fill="#000" stroke-width="1"><tspan dy="3.634615384615385">5B</tspan></text></svg>