<svg style="overflow: hidden; position: relative;" xmlns="http://www.w3.org/2000/svg" xmlns:xlink="http://www.w3.org/1999/xlink" width="800" version="1.1" height="600"><path transform="matrix(1,0,0,1,0,0)" fill="none" stroke="#000" d="M363.5,162L338.5,137" stroke-width="1"></path><path transform="matrix(1,0,0,1,0,0)" fill="none" stroke="#000" d="M304.5,94L273.5,135" stroke-width="1"></path><path transform="matrix(1,0,0,1,0,0)" fill="none" stroke="#000" d="M298.5,160L273.5,135" stroke-width="1"></path><path transform="matrix(1,0,0,1,0,0)" fill="none" stroke="#000" d="M108.5,159L133.5,134" stroke-width="1"></path><circle transform="matrix(1,0,0,1,133.5,134)" cx="0" cy="0" r="5" fill="rgb(0, 0, 0)" stroke="rgb(0, 0, 0)" stroke-width="1"></circle><text transform="matrix(1,0,0,1,133.5,134)" style="text-anchor: middle; font: normal normal normal 10px/normal ;" x="10" y="10" text-anchor="middle" font-family="&quot;Arial&quot;" font-size="10px" stroke="none" fill="#000" stroke-width="1"><tspan dy="3.634615384615385">0</tspan></text><circle transform="matrix(1,0,0,1,203.5,135)" cx="0" cy="0" r="5" fill="rgb(0, 0, 0)" stroke="rgb(0, 0, 0)" stroke-width="1"></circle><text transform="matrix(1,0,0,1,203.5,135)" style="text-anchor: middle; font: normal normal normal 10px/normal ;" x="10" y="10" text-anchor="middle" font-family="&quot;Arial&quot;" font-size="10px" stroke="none" fill="#000" stroke-width="1"><tspan dy="3.634615384615385">1</tspan></text><circle transform="matrix(1,0,0,1,273.5,135)" cx="0" cy="0" r="5" fill="rgb(0, 0, 0)" stroke="rgb(0, 0, 0)" stroke-width="1"></circle><text transform="matrix(1,0,0,1,273.5,135)" style="text-anchor: middle; font: normal normal normal 10px/normal ;" x="10" y="10" text-anchor="middle" font-family="&quot;Arial&quot;" font-size="10px" stroke="none" fill="#000" stroke-width="1"><tspan dy="3.634615384615385">3</tspan></text><circle transform="matrix(1,0,0,1,338.5,137)" cx="0" cy="0" r="5" fill="rgb(0, 0, 0)" stroke="rgb(0, 0, 0)" stroke-width="1"></circle><text transform="matrix(1,0,0,1,338.5,137)" style="text-anchor: middle; font: normal normal normal 10px/normal ;" x="10" y="10" text-anchor="middle" font-family="&quot;Arial&quot;" font-size="10px" stroke="none" fill="#000" stroke-width="1"><tspan dy="3.634615384615385">6</tspan></text><circle transform="matrix(1,0,0,1,393.5,136)" cx="0" cy="0" r="5" fill="rgb(0, 0, 0)" stroke="rgb(0, 0, 0)" stroke-width="1"></circle><text transform="matrix(1,0,0,1,393.5,136)" style="text-anchor: middle; font: normal normal normal 10px/normal ;" x="10" y="10" text-anchor="middle" font-family="&quot;Arial&quot;" font-size="10px" stroke="none" fill="#000" stroke-width="1"><tspan dy="3.634615384615385">8</tspan></text><circle transform="matrix(1,0,0,1,453.5,136)" cx="0" cy="0" r="5" fill="rgb(0, 0, 0)" stroke="rgb(0, 0, 0)" stroke-width="1"></circle><text transform="matrix(1,0,0,1,453.5,136)" style="text-anchor: middle; font: normal normal normal 10px/normal ;" x="10" y="10" text-anchor="middle" font-family="&quot;Arial&quot;" font-size="10px" stroke="none" fill="#000" stroke-width="1"><tspan dy="3.634615384615385"></tspan></text><circle transform="matrix(1,0,0,1,522.5,139)" cx="0" cy="0" r="5" fill="rgb(0, 0, 0)" stroke="rgb(0, 0, 0)" stroke-width="1"></circle><text transform="matrix(1,0,0,1,522.5,139)" style="text-anchor: middle; font: normal normal normal 10px/normal ;" x="10" y="10" text-anchor="middle" font-family="&quot;Arial&quot;" font-size="10px" stroke="none" fill="#000" stroke-width="1"><tspan dy="3.634615384615385"></tspan></text><path transform="matrix(1,0,0,1,0,0)" fill="none" stroke="rgb(0, 0, 0)" d="M133.5,134L203.5,135" stroke-width="2" class="pgline line_ipiq-q3nn-l6jj" stroke-linecap="round" stroke-linejoin="round"></path><text transform="matrix(1,0,0,1,193.5,159.5)" style="text-anchor: middle; font: normal normal normal 10px/normal ;" x="0" y="0" text-anchor="middle" font-family="&quot;Arial&quot;" font-size="10px" stroke="none" fill="#000" stroke-width="1"><tspan dy="-14.53846153846154">0м</tspan></text>,<text transform="matrix(1,0,0,1,193.5,159.5)" style="text-anchor: middle; font: normal normal normal 10px/normal ;" x="0" y="0" text-anchor="middle" font-family="&quot;Arial&quot;" font-size="10px" stroke="none" fill="#000" stroke-width="1"><tspan dy="-2.4230769230769225">0мм²</tspan></text>,<text transform="matrix(1,0,0,1,193.5,159.5)" style="text-anchor: middle; font: normal normal normal 10px/normal ;" x="0" y="0" text-anchor="middle" font-family="&quot;Arial&quot;" font-size="10px" stroke="none" fill="#000" stroke-width="1"><tspan dy="9.69230769230769">0мм²</tspan></text>,<text transform="matrix(1,0,0,1,193.5,159.5)" style="text-anchor: middle; font: normal normal normal 10px/normal ;" x="0" y="0" text-anchor="middle" font-family="&quot;Arial&quot;" font-size="10px" stroke="none" fill="#000" stroke-width="1"><tspan dy="21.807692307692307"></tspan></text><path transform="matrix(1,0,0,1,0,0)" fill="none" stroke="rgb(0, 0, 0)" d="M168.5,134.5L193.5,159.5" stroke-dasharray="- " stroke-width="1"></path><path transform="matrix(1,0,0,1,0,0)" fill="none" stroke="rgb(0, 0, 0)" d="M203.5,135L273.5,135" stroke-width="2" class="pgline line_iisu-l5iu-5ihs" stroke-linecap="round" stroke-linejoin="round"></path><text transform="matrix(1,0,0,1,263.5,160)" style="text-anchor: middle; font: normal normal normal 10px/normal ;" x="0" y="0" text-anchor="middle" font-family="&quot;Arial&quot;" font-size="10px" stroke="none" fill="#000" stroke-width="1"><tspan dy="-14.53846153846154">0м</tspan></text>,<text transform="matrix(1,0,0,1,263.5,160)" style="text-anchor: middle; font: normal normal normal 10px/normal ;" x="0" y="0" text-anchor="middle" font-family="&quot;Arial&quot;" font-size="10px" stroke="none" fill="#000" stroke-width="1"><tspan dy="-2.4230769230769225">0мм²</tspan></text>,<text transform="matrix(1,0,0,1,263.5,160)" style="text-anchor: middle; font: normal normal normal 10px/normal ;" x="0" y="0" text-anchor="middle" font-family="&quot;Arial&quot;" font-size="10px" stroke="none" fill="#000" stroke-width="1"><tspan dy="9.69230769230769">0мм²</tspan></text>,<text transform="matrix(1,0,0,1,263.5,160)" style="text-anchor: middle; font: normal normal normal 10px/normal ;" x="0" y="0" text-anchor="middle" font-family="&quot;Arial&quot;" font-size="10px" stroke="none" fill="#000" stroke-width="1"><tspan dy="21.807692307692307"></tspan></text><path transform="matrix(1,0,0,1,0,0)" fill="none" stroke="rgb(0, 0, 0)" d="M238.5,135L263.5,160" stroke-dasharray="- " stroke-width="1"></path><circle transform="matrix(1,0,0,1,108.5,159)" cx="0" cy="0" r="10" fill="#ffffff" stroke="rgb(0, 0, 0)" stroke-width="1"></circle><path transform="matrix(1,0,0,1,108.5,159)" fill="none" stroke="rgb(0, 0, 0)" d="M-6,0L6,0L2,3L6,0L2,-3" stroke-width="1"></path><text transform="matrix(1,0,0,1,108.5,159)" style="text-anchor: middle; font: normal normal normal 10px/normal ;" x="20" y="20" text-anchor="middle" font-family="&quot;Arial&quot;" font-size="10px" stroke="none" fill="#000" stroke-width="1"><tspan dy="3.634615384615385">Источник</tspan></text><rect transform="matrix(1,0,0,1,298.5,160)" x="-5" y="-5" width="10" height="10" rx="0" ry="0" fill="rgb(255, 255, 255)" stroke="rgb(0, 0, 0)" stroke-width="1"></rect><text transform="matrix(1,0,0,1,298.5,160)" style="text-anchor: middle; font: normal normal normal 10px/normal ;" x="10" y="10" text-anchor="middle" font-family="&quot;Arial&quot;" font-size="10px" stroke="none" fill="#000" stroke-width="1"><tspan dy="3.634615384615385"></tspan></text><rect transform="matrix(1,0,0,1,304.5,94)" x="-5" y="-5" width="10" height="10" rx="0" ry="0" fill="rgb(255, 255, 255)" stroke="rgb(0, 0, 0)" stroke-width="1"></rect><text transform="matrix(1,0,0,1,304.5,94)" style="text-anchor: middle; font: normal normal normal 10px/normal ;" x="10" y="10" text-anchor="middle" font-family="&quot;Arial&quot;" font-size="10px" stroke="none" fill="#000" stroke-width="1"><tspan dy="3.634615384615385">4</tspan></text><path transform="matrix(1,0,0,1,0,0)" fill="none" stroke="rgb(0, 0, 0)" d="M338.5,137L273.5,135" stroke-width="2" class="pgline line_cbxv-5bma-3st7" stroke-linecap="round" stroke-linejoin="round"></path><text transform="matrix(1,0,0,1,331,161)" style="text-anchor: middle; font: normal normal normal 10px/normal ;" x="0" y="0" text-anchor="middle" font-family="&quot;Arial&quot;" font-size="10px" stroke="none" fill="#000" stroke-width="1"><tspan dy="-14.53846153846154">0м</tspan></text>,<text transform="matrix(1,0,0,1,331,161)" style="text-anchor: middle; font: normal normal normal 10px/normal ;" x="0" y="0" text-anchor="middle" font-family="&quot;Arial&quot;" font-size="10px" stroke="none" fill="#000" stroke-width="1"><tspan dy="-2.4230769230769225">0мм²</tspan></text>,<text transform="matrix(1,0,0,1,331,161)" style="text-anchor: middle; font: normal normal normal 10px/normal ;" x="0" y="0" text-anchor="middle" font-family="&quot;Arial&quot;" font-size="10px" stroke="none" fill="#000" stroke-width="1"><tspan dy="9.69230769230769">0мм²</tspan></text>,<text transform="matrix(1,0,0,1,331,161)" style="text-anchor: middle; font: normal normal normal 10px/normal ;" x="0" y="0" text-anchor="middle" font-family="&quot;Arial&quot;" font-size="10px" stroke="none" fill="#000" stroke-width="1"><tspan dy="21.807692307692307"></tspan></text><path transform="matrix(1,0,0,1,0,0)" fill="none" stroke="rgb(0, 0, 0)" d="M306,136L331,161" stroke-dasharray="- " stroke-width="1"></path><rect transform="matrix(1,0,0,1,363.5,162)" x="-5" y="-5" width="10" height="10" rx="0" ry="0" fill="rgb(255, 255, 255)" stroke="rgb(0, 0, 0)" stroke-width="1"></rect><text transform="matrix(1,0,0,1,363.5,162)" style="text-anchor: middle; font: normal normal normal 10px/normal ;" x="10" y="10" text-anchor="middle" font-family="&quot;Arial&quot;" font-size="10px" stroke="none" fill="#000" stroke-width="1"><tspan dy="3.634615384615385">7</tspan></text><path transform="matrix(1,0,0,1,0,0)" fill="none" stroke="rgb(0, 0, 0)" d="M393.5,136L338.5,137" stroke-width="2" class="pgline line_gsxo-nenq-lc1c" stroke-linecap="round" stroke-linejoin="round"></path><text transform="matrix(1,0,0,1,391,161.5)" style="text-anchor: middle; font: normal normal normal 10px/normal ;" x="0" y="0" text-anchor="middle" font-family="&quot;Arial&quot;" font-size="10px" stroke="none" fill="#000" stroke-width="1"><tspan dy="-14.53846153846154">0м</tspan></text>,<text transform="matrix(1,0,0,1,391,161.5)" style="text-anchor: middle; font: normal normal normal 10px/normal ;" x="0" y="0" text-anchor="middle" font-family="&quot;Arial&quot;" font-size="10px" stroke="none" fill="#000" stroke-width="1"><tspan dy="-2.4230769230769225">0мм²</tspan></text>,<text transform="matrix(1,0,0,1,391,161.5)" style="text-anchor: middle; font: normal normal normal 10px/normal ;" x="0" y="0" text-anchor="middle" font-family="&quot;Arial&quot;" font-size="10px" stroke="none" fill="#000" stroke-width="1"><tspan dy="9.69230769230769">0мм²</tspan></text>,<text transform="matrix(1,0,0,1,391,161.5)" style="text-anchor: middle; font: normal normal normal 10px/normal ;" x="0" y="0" text-anchor="middle" font-family="&quot;Arial&quot;" font-size="10px" stroke="none" fill="#000" stroke-width="1"><tspan dy="21.807692307692307"></tspan></text><path transform="matrix(1,0,0,1,0,0)" fill="none" stroke="rgb(0, 0, 0)" d="M366,136.5L391,161.5" stroke-dasharray="- " stroke-width="1"></path></svg>