<?xml version="1.0" standalone="no"?>
<!DOCTYPE svg PUBLIC "-//W3C//DTD SVG 20010904//EN"
 "http://www.w3.org/TR/2001/REC-SVG-20010904/DTD/svg10.dtd">
<svg version="1.0" xmlns="http://www.w3.org/2000/svg"
 width="422.000000pt" height="136.000000pt" viewBox="0 0 422.000000 136.000000"
 preserveAspectRatio="xMidYMid meet">
<metadata>
Created by potrace 1.15, written by Peter Selinger 2001-2017
</metadata>
<g transform="translate(0.000000,136.000000) scale(0.100000,-0.100000)"
fill="#000000" stroke="none">
<path fill="#990000" d="M275 1311 c-68 -34 -106 -65 -157 -131 -33 -42 -98 -150 -98 -162 0
-3 14 -11 30 -17 28 -9 31 -8 46 22 82 160 217 226 340 166 102 -49 212 -211
272 -399 52 -164 107 -446 130 -670 7 -74 8 -75 34 -73 69 5 73 10 210 323 71
162 158 369 194 460 118 299 116 295 150 293 l30 -3 -8 88 c-5 48 -10 91 -11
95 -2 8 -129 -98 -135 -114 -2 -4 7 -10 19 -14 31 -10 23 -42 -56 -230 -104
-248 -248 -579 -255 -588 -3 -4 -16 50 -28 121 -63 362 -160 610 -292 742 -90
92 -140 114 -260 118 -88 3 -99 1 -155 -27z"/>
<path d="M2786 951 c-56 -57 -117 -92 -198 -116 -32 -9 -58 -20 -58 -24 0 -10
78 -24 91 -16 16 10 10 -8 -41 -136 -82 -203 -86 -235 -28 -265 47 -24 170
-15 228 17 60 33 65 54 10 34 -81 -29 -130 -16 -130 33 0 24 104 287 122 310
7 7 37 12 83 12 57 0 75 4 88 18 10 10 17 22 17 25 0 4 -36 7 -80 7 -48 0 -80
4 -80 10 0 6 11 38 25 72 29 72 29 68 12 68 -7 0 -34 -22 -61 -49z"/>
<path d="M1578 850 c-162 -41 -309 -192 -310 -319 0 -102 63 -151 193 -151 42
0 100 7 130 16 56 16 149 69 149 85 0 14 -14 11 -82 -21 -151 -72 -256 -12
-218 124 l12 43 176 7 c200 8 205 10 205 78 0 55 -25 103 -65 124 -38 20 -138
27 -190 14z m109 -46 c21 -21 24 -32 20 -62 -10 -58 -26 -67 -132 -70 -52 -2
-95 0 -95 5 0 4 16 32 36 62 24 36 49 59 77 72 55 24 63 24 94 -7z"/>
<path d="M2150 841 c-154 -49 -271 -183 -272 -312 0 -56 16 -86 66 -123 22
-17 46 -22 116 -24 78 -4 96 -1 144 21 58 27 146 106 146 132 0 26 -20 17 -58
-26 -72 -81 -170 -106 -219 -57 -45 46 -28 164 41 282 65 111 176 127 176 26
0 -50 23 -74 64 -66 17 3 41 17 54 32 82 94 -87 170 -258 115z"/>
<path d="M3251 845 c-123 -35 -223 -114 -268 -213 -66 -142 -5 -240 154 -250
132 -8 266 46 355 146 109 121 111 243 6 302 -54 30 -168 37 -247 15z m145
-62 c12 -46 -3 -149 -29 -207 -35 -76 -73 -124 -118 -147 -49 -24 -84 -24
-109 1 -52 52 5 266 93 348 59 55 150 58 163 5z"/>
<path d="M3810 853 c-36 -2 -75 -5 -87 -8 -27 -6 -31 -25 -5 -25 10 0 26 -6
36 -13 18 -13 17 -17 -8 -96 -36 -110 -94 -252 -113 -273 -8 -9 -31 -20 -51
-25 -76 -18 -36 -28 113 -29 83 0 156 2 163 4 20 7 14 22 -9 22 -11 0 -29 4
-39 10 -22 12 -17 34 35 164 42 105 78 160 120 186 44 27 52 25 65 -14 19 -57
66 -62 116 -12 40 40 44 78 12 100 -45 32 -133 11 -213 -50 -40 -30 -40 -30
-20 25 l14 41 -32 -2 c-18 -1 -61 -3 -97 -5z"/>
</g>
</svg>
